<?xml version="1.0" encoding="UTF-8" standalone="no"?>
<!-- Created with Inkscape (http://www.inkscape.org/) -->

<svg
   width="84mm"
   height="20mm"
   viewBox="0 0 84 20"
   version="1.1"
   id="svg5"
   inkscape:version="1.2 (dc2aedaf03, 2022-05-15)"
   sodipodi:docname="logo.svg"
   inkscape:export-filename="logo-rose.png"
   inkscape:export-xdpi="154.81905"
   inkscape:export-ydpi="154.81905"
   xmlns:inkscape="http://www.inkscape.org/namespaces/inkscape"
   xmlns:sodipodi="http://sodipodi.sourceforge.net/DTD/sodipodi-0.dtd"
   xmlns="http://www.w3.org/2000/svg"
   xmlns:svg="http://www.w3.org/2000/svg">
  <sodipodi:namedview
     id="namedview7"
     pagecolor="#ffffff"
     bordercolor="#000000"
     borderopacity="0.25"
     inkscape:showpageshadow="2"
     inkscape:pageopacity="0.0"
     inkscape:pagecheckerboard="0"
     inkscape:deskcolor="#d1d1d1"
     inkscape:document-units="mm"
     showgrid="false"
     inkscape:zoom="1.4912879"
     inkscape:cx="99.578358"
     inkscape:cy="67.726694"
     inkscape:window-width="1920"
     inkscape:window-height="1017"
     inkscape:window-x="-8"
     inkscape:window-y="-8"
     inkscape:window-maximized="1"
     inkscape:current-layer="layer1" />
  <defs
     id="defs2" />
  <g
     inkscape:label="Layer 1"
     inkscape:groupmode="layer"
     id="layer1">
    <rect
       style="fill:#000000;fill-opacity:1;stroke:none;stroke-width:1.2722"
       id="rect3643"
       width="91"
       height="20.225805"
       x="0"
       y="-26.080645" />
    <g
       aria-label="FRUCTOSE"
       id="text740"
       style="font-size:14.1111px;line-height:0;-inkscape-font-specification:sans-serif;letter-spacing:1.83621px;fill:#ffffff;stroke-width:1.385;fill-opacity:1"
       transform="matrix(0.73950894,0,0,0.73950894,1.9058531,2.3897454)">
      <path
         d="M 23.638949,15.258064 V 5.3802941 h 2.116665 v 9.8777699 z m 0.973666,-3.922886 V 9.5148465 h 5.108219 v 1.8203315 z m 0,-4.0498853 V 5.3802941 H 30.3135 v 1.9049986 z"
         style="font-weight:600;font-family:Lexend;-inkscape-font-specification:'Lexend Semi-Bold';fill:#ffffff;fill-opacity:1"
         id="path5474" />
      <path
         d="M 34.125277,15.258064 V 5.3802941 h 4.374441 q 0.917221,0 1.665109,0.423333 0.747889,0.4092219 1.171222,1.114777 0.437444,0.705555 0.437444,1.6086654 0,0.8889993 -0.437444,1.6227765 -0.423333,0.719666 -1.171222,1.142999 -0.747888,0.423333 -1.665109,0.423333 h -2.328332 v 3.541886 z m 5.602106,0 -2.511775,-4.459107 2.173109,-0.352778 2.793998,4.825996 z M 36.171386,9.9946239 h 2.229554 q 0.381,0 0.663222,-0.1693332 0.296333,-0.1834443 0.451555,-0.4938885 0.155222,-0.3245553 0.155222,-0.7196661 0,-0.423333 -0.183444,-0.7337772 Q 39.30405,7.5675147 38.951273,7.3981815 38.598495,7.2147372 38.132829,7.2147372 h -1.961443 z"
         style="font-weight:600;font-family:Lexend;-inkscape-font-specification:'Lexend Semi-Bold';fill:#ffffff;fill-opacity:1"
         id="path5476" />
      <path
         d="m 49.83272,15.342731 q -1.199443,0 -2.144887,-0.493889 -0.931332,-0.507999 -1.467554,-1.382887 -0.536222,-0.889 -0.536222,-2.003777 V 5.366183 h 2.130776 v 5.968995 q 0,0.592667 0.268111,1.072444 0.268111,0.465666 0.719666,0.747888 0.465666,0.282222 1.03011,0.282222 0.578556,0 1.044222,-0.282222 0.479777,-0.282222 0.747888,-0.747888 0.282222,-0.479777 0.282222,-1.072444 V 5.366183 h 2.060221 v 6.095995 q 0,1.114777 -0.536222,2.003777 -0.522111,0.874888 -1.467554,1.382887 -0.945444,0.493889 -2.130777,0.493889 z"
         style="font-weight:600;font-family:Lexend;-inkscape-font-specification:'Lexend Semi-Bold';fill:#ffffff;fill-opacity:1"
         id="path5478" />
      <path
         d="m 62.619144,15.399175 q -1.086555,0 -2.003776,-0.366888 -0.903111,-0.381 -1.580444,-1.058333 -0.663221,-0.691444 -1.03011,-1.622776 -0.366889,-0.945444 -0.366889,-2.060221 0,-1.0865547 0.381,-2.0037762 0.381,-0.9313326 1.072444,-1.6086654 0.691444,-0.691444 1.622776,-1.0724437 0.931333,-0.3809997 2.017888,-0.3809997 0.705555,0 1.382887,0.1975554 0.691444,0.1834443 1.255888,0.5503329 0.578555,0.3668886 0.987777,0.8748883 L 65.032142,8.315403 Q 64.707587,7.9767366 64.340698,7.7368479 63.973809,7.4828481 63.564587,7.3558482 q -0.39511,-0.141111 -0.846666,-0.141111 -0.606777,0 -1.142999,0.2257776 -0.52211,0.2257776 -0.917221,0.6349995 -0.395111,0.3951108 -0.635,0.9736659 -0.225777,0.564444 -0.225777,1.2558878 0,0.705555 0.225777,1.28411 0.225778,0.564444 0.635,0.973666 0.409222,0.395111 0.973666,0.620889 0.578555,0.211666 1.269999,0.211666 0.451555,0 0.874888,-0.127 0.423333,-0.127 0.77611,-0.352777 0.366889,-0.225778 0.649111,-0.522111 l 1.044222,1.650999 q -0.352778,0.380999 -0.931333,0.691444 -0.564444,0.310444 -1.269999,0.493888 -0.705555,0.169333 -1.425221,0.169333 z"
         style="font-weight:600;font-family:Lexend;-inkscape-font-specification:'Lexend Semi-Bold';fill:#ffffff;fill-opacity:1"
         id="path5480" />
      <path
         d="M 71.906003,15.258064 V 7.2852927 H 69.027339 V 5.3802941 h 7.95866 v 1.9049986 h -2.963331 v 7.9727713 z"
         style="font-weight:600;font-family:Lexend;-inkscape-font-specification:'Lexend Semi-Bold';fill:#ffffff;fill-opacity:1"
         id="path5482" />
      <path
         d="m 84.537183,15.399175 q -1.100666,0 -2.017887,-0.380999 -0.917222,-0.381 -1.608665,-1.058333 -0.677333,-0.691444 -1.044222,-1.622776 -0.366888,-0.945444 -0.366888,-2.04611 0,-1.1147769 0.366888,-2.0461095 0.366889,-0.9313326 1.044222,-1.6086655 0.691443,-0.6914439 1.608665,-1.0724436 0.917221,-0.3809997 2.003776,-0.3809997 1.100666,0 2.003776,0.3809997 0.917222,0.3809997 1.594555,1.0724436 0.691444,0.691444 1.058332,1.6227766 0.366889,0.9313326 0.366889,2.0319984 0,1.100666 -0.366889,2.031998 -0.366888,0.931333 -1.058332,1.622777 -0.677333,0.691444 -1.594555,1.072444 -0.90311,0.380999 -1.989665,0.380999 z m -0.01411,-2.003776 q 0.635,0 1.15711,-0.225778 0.522111,-0.239888 0.903111,-0.64911 0.381,-0.423333 0.592666,-0.987777 0.225778,-0.564444 0.225778,-1.241777 0,-0.6773328 -0.225778,-1.2417768 -0.211666,-0.564444 -0.592666,-0.9736659 -0.381,-0.423333 -0.903111,-0.6491106 -0.52211,-0.2398887 -1.15711,-0.2398887 -0.620888,0 -1.142999,0.2398887 -0.522111,0.2257776 -0.917221,0.6491106 -0.395111,0.4092219 -0.606778,0.9736659 -0.197555,0.564444 -0.197555,1.2417768 0,0.677333 0.197555,1.241777 0.211667,0.564444 0.606778,0.987777 0.39511,0.409222 0.917221,0.64911 0.522111,0.225778 1.142999,0.225778 z"
         style="font-weight:600;font-family:Lexend;-inkscape-font-specification:'Lexend Semi-Bold';fill:#ffffff;fill-opacity:1"
         id="path5484" />
      <path
         d="m 96.505164,15.399175 q -0.917222,0 -1.679221,-0.225777 -0.747889,-0.225778 -1.340555,-0.663222 -0.578555,-0.437444 -1.044221,-1.058333 l 1.326443,-1.509887 q 0.691444,0.959555 1.368777,1.312332 0.691444,0.338666 1.495776,0.338666 0.437445,0 0.776111,-0.126999 0.352777,-0.127 0.550333,-0.338667 0.197555,-0.225777 0.197555,-0.536222 0,-0.225777 -0.09878,-0.409222 -0.09878,-0.197555 -0.282222,-0.338666 -0.183445,-0.155222 -0.437445,-0.268111 -0.253999,-0.127 -0.564444,-0.211666 -0.310444,-0.09878 -0.677332,-0.155222 -0.790222,-0.183445 -1.382888,-0.437445 -0.592666,-0.26811 -0.987777,-0.64911 Q 93.330166,9.726513 93.132611,9.2326245 92.949166,8.738736 92.949166,8.1178476 q 0,-0.6349995 0.282222,-1.1712213 0.282222,-0.550333 0.776111,-0.9454438 0.507999,-0.3951108 1.15711,-0.6067773 0.663222,-0.2116665 1.396999,-0.2116665 0.90311,0 1.580443,0.1975554 0.677333,0.1975554 1.171222,0.5926662 0.507999,0.3809997 0.846667,0.9313327 L 98.819384,8.2025142 Q 98.523051,7.8074034 98.170273,7.5392925 97.831607,7.2711816 97.422385,7.1441817 q -0.395111,-0.141111 -0.818444,-0.141111 -0.465666,0 -0.804332,0.1269999 -0.338667,0.1128888 -0.536222,0.3527775 -0.183445,0.2257776 -0.183445,0.5362218 0,0.2539998 0.127,0.4515552 0.127,0.1975554 0.366889,0.3527775 0.239889,0.141111 0.578555,0.2539998 0.338666,0.1128888 0.747888,0.1975554 0.776111,0.1552221 1.396999,0.4092219 0.620889,0.2539998 1.058333,0.6208883 0.451555,0.352778 0.691444,0.846666 0.23989,0.479778 0.23989,1.086555 0,1.001888 -0.479779,1.707443 -0.479777,0.705555 -1.326443,1.086555 -0.846666,0.366888 -1.975554,0.366888 z"
         style="font-weight:600;font-family:Lexend;-inkscape-font-specification:'Lexend Semi-Bold';fill:#ffffff;fill-opacity:1"
         id="path5486" />
      <path
         d="M 104.04227,15.258064 V 5.3802941 h 6.67455 v 1.8626653 h -4.60022 v 6.1524396 h 4.699 v 1.862665 z m 0.98778,-4.134552 V 9.3172911 h 5.00944 v 1.8062209 z"
         style="font-weight:600;font-family:Lexend;-inkscape-font-specification:'Lexend Semi-Bold';fill:#ffffff;fill-opacity:1"
         id="path5488" />
    </g>
    <g
       id="g5886"
       style="fill:#ffffff;fill-opacity:1"
       transform="matrix(0.05362404,0,0,0.05362404,0.30463266,2.1294918)">
      <path
         d="m 255.94727,209.28174 c -0.073,12.12604 -6.37176,14.83094 -6.37176,14.83094 0,0 -108.69323,62.8068 -115.76002,66.74188 -7.00226,3.00557 -11.68243,0 -11.68243,0 0,0 -113.7320233,-65.96058 -117.8832364,-68.86028 -4.15227045,-2.8997 -4.24853949,-7.416 -4.24853949,-7.416 0,0 0.11425335,-130.61263 0,-136.660824 C -0.11297001,71.868202 7.4351707,67.323322 7.4351707,67.323322 L 121.07093,1.6411773 c 6.99591,-3.6926489 13.80669,0 13.80669,0 0,0 100.38657,58.3508397 111.51148,64.6224137 10.90382,5.184318 9.55817,15.890671 9.55817,15.890671 0,0 0.0677,115.857918 0,127.127478 z M 210.57709,78.19271 C 187.30956,64.800506 132.49747,33.041397 132.49747,33.041397 c 0,0 -5.3477,-2.890176 -10.84034,0 L 32.438846,84.44417 c 0,0 -5.926375,3.558198 -5.836453,8.291521 0.08992,4.733324 0,106.952369 0,106.952369 0,0 0.07511,3.5349 3.335569,5.80364 3.259401,2.26873 92.552798,53.89065 92.552798,53.89065 0,0 3.67515,2.35237 9.17202,0 5.5487,-3.07968 90.8866,-52.23277 90.8866,-52.23277 0,0 4.9457,-2.11735 5.00282,-11.60728 0.0159,-2.73667 0.0222,-13.35939 0.0233,-26.70607 L 127.10322,229.7173 v -23.29079 c 0,-9.56617 7.40532,-15.88009 7.40532,-15.88009 l 88.86918,-53.55082 c 3.35355,-3.50209 4.04542,-9.11199 4.18824,-11.23357 -0.003,-9.72814 -0.007,-18.2261 -0.0106,-23.60945 L 127.1032,163.02094 v -24.34946 c 0,-9.56616 6.34742,-13.76274 6.34742,-13.76274 z"
         fill="#409EFF"
         id="path5884"
         style="fill:#ffffff;fill-opacity:1" />
    </g>
  </g>
</svg>
